<?xml version="1.0" standalone="no"?>
<!DOCTYPE svg PUBLIC "-//W3C//DTD SVG 20010904//EN"
 "http://www.w3.org/TR/2001/REC-SVG-20010904/DTD/svg10.dtd">
<svg version="1.0" xmlns="http://www.w3.org/2000/svg"
 width="392.000000pt" height="392.000000pt" viewBox="0 0 392.000000 392.000000"
 preserveAspectRatio="xMidYMid meet">
<metadata>
Created by potrace 1.11, written by Peter Selinger 2001-2013
</metadata>
<g transform="translate(0.000000,392.000000) scale(0.100000,-0.100000)"
fill="#000000" stroke="none">
<path d="M2580 3219 c-107 -50 -122 -57 -205 -89 -44 -17 -90 -38 -102 -46
-26 -16 -29 -50 -8 -78 19 -24 9 -46 -68 -159 -35 -50 -201 -297 -369 -547
-168 -250 -319 -476 -337 -501 -17 -26 -31 -49 -31 -53 0 -3 40 -7 90 -8 l90
-3 -106 -165 c-123 -191 -162 -259 -159 -280 1 -8 3 -23 3 -33 2 -23 73 -55
132 -58 66 -4 69 -6 64 -47 -11 -91 -29 -111 -88 -102 -24 3 -146 6 -272 6
l-229 -1 -3 -364 c-2 -260 1 -368 9 -377 16 -19 2898 -21 2917 -2 17 17 17
1399 0 1416 -9 9 -175 12 -685 12 l-673 0 -1 -32 c0 -18 -2 -40 -4 -49 -1 -8
-6 -42 -9 -75 -4 -32 -9 -68 -11 -79 -8 -42 -18 -141 -16 -173 4 -87 51 -124
175 -137 12 -1 25 -3 29 -4 10 -1 0 -83 -13 -113 l-11 -23 -380 0 -380 0 4 40
c7 54 24 95 39 97 105 12 149 33 173 79 14 26 37 152 50 264 3 28 7 59 9 70 2
11 7 46 10 77 l7 58 167 2 167 3 6 45 c4 25 9 74 13 110 4 36 11 94 16 130 5
36 12 88 15 115 12 111 16 141 20 165 3 14 7 52 10 85 3 33 8 76 11 95 3 19 7
50 9 68 2 18 6 49 9 70 3 20 8 60 11 87 3 28 7 66 10 85 2 19 7 55 10 80 3 25
17 98 30 163 30 142 31 161 5 187 -28 28 -74 25 -150 -11z m-245 -526 c-3 -38
-8 -81 -10 -98 -2 -16 -7 -52 -10 -80 -3 -27 -7 -66 -10 -85 -5 -40 -14 -123
-30 -267 -16 -149 -7 -143 -237 -143 -177 0 -188 1 -188 19 0 10 91 155 201
322 111 167 213 322 227 344 48 77 66 74 57 -12z m-122 -814 c13 -7 17 -22 17
-59 0 -86 23 -80 -296 -80 -156 0 -284 4 -284 8 0 18 83 124 104 132 29 11
437 10 459 -1z"/>
<path d="M998 1729 c-16 -9 -18 -33 -18 -264 0 -287 8 -263 -88 -266 -72 -3
-89 -19 -98 -92 l-7 -59 84 6 c46 2 90 5 97 5 8 1 12 23 12 76 0 73 1 75 28
81 44 10 116 61 158 111 30 35 236 334 279 403 8 14 -424 13 -447 -1z"/>
</g>
</svg>
